<svg xmlns="http://www.w3.org/2000/svg" viewBox="0 0 1100 650" role="img" aria-labelledby="title desc">
<title id="title">03｜直方图与阈值</title><desc id="desc">直方图以横轴表示亮度、纵轴表示出现次数；橙色线是把亮暗类别分开的候选阈值。</desc>
<rect width="1100" height="650" rx="28" fill="#F5F3EC"/>
<text x="40" y="58" fill="#183235" font-size="30" font-weight="700" text-anchor="start" font-family="Microsoft YaHei, Noto Sans CJK SC, Arial, sans-serif">03｜直方图与阈值</text>
<rect x="52" y="93" width="995" height="487" rx="16" fill="#FFFFFF" stroke="none" stroke-width="1"/><line x1="120" y1="185.0" x2="955" y2="185.0" stroke="#D6DFD9" stroke-width="1"/><line x1="120" y1="241.0" x2="955" y2="241.0" stroke="#D6DFD9" stroke-width="1"/><line x1="120" y1="297.0" x2="955" y2="297.0" stroke="#D6DFD9" stroke-width="1"/><line x1="120" y1="353.0" x2="955" y2="353.0" stroke="#D6DFD9" stroke-width="1"/><line x1="120" y1="409.0" x2="955" y2="409.0" stroke="#D6DFD9" stroke-width="1"/><line x1="120" y1="465.0" x2="955" y2="465.0" stroke="#D6DFD9" stroke-width="1"/><line x1="120.0" y1="185" x2="120.0" y2="465" stroke="#D6DFD9" stroke-width="1"/><line x1="224.375" y1="185" x2="224.375" y2="465" stroke="#D6DFD9" stroke-width="1"/><line x1="328.75" y1="185" x2="328.75" y2="465" stroke="#D6DFD9" stroke-width="1"/><line x1="433.125" y1="185" x2="433.125" y2="465" stroke="#D6DFD9" stroke-width="1"/><line x1="537.5" y1="185" x2="537.5" y2="465" stroke="#D6DFD9" stroke-width="1"/><line x1="641.875" y1="185" x2="641.875" y2="465" stroke="#D6DFD9" stroke-width="1"/><line x1="746.25" y1="185" x2="746.25" y2="465" stroke="#D6DFD9" stroke-width="1"/><line x1="850.625" y1="185" x2="850.625" y2="465" stroke="#D6DFD9" stroke-width="1"/><line x1="955.0" y1="185" x2="955.0" y2="465" stroke="#D6DFD9" stroke-width="1"/><rect x="120.0" y="433.33155531780545" width="11.046875" height="31.668444682194572" rx="2" fill="#4D79A5" stroke="none" stroke-width="1"/><rect x="133.046875" y="429.8161129945128" width="11.046875" height="35.1838870054872" rx="2" fill="#4D79A5" stroke="none" stroke-width="1"/><rect x="146.09375" y="424.98224025183043" width="11.046875" height="40.01775974816958" rx="2" fill="#4D79A5" stroke="none" stroke-width="1"/><rect x="159.140625" y="418.6154904515753" width="11.046875" height="46.384509548424745" rx="2" fill="#4D79A5" stroke="none" stroke-width="1"/><rect x="172.1875" y="410.59670516271143" width="11.046875" height="54.403294837288584" rx="2" fill="#4D79A5" stroke="none" stroke-width="1"/><rect x="185.234375" y="400.96130713469756" width="11.046875" height="64.03869286530241" rx="2" fill="#4D79A5" stroke="none" stroke-width="1"/><rect x="198.28125" y="389.9508040871496" width="11.046875" height="75.0491959128504" rx="2" fill="#4D79A5" stroke="none" stroke-width="1"/><rect x="211.328125" y="378.0414114574786" width="11.046875" height="86.95858854252143" rx="2" fill="#4D79A5" stroke="none" stroke-width="1"/><rect x="224.375" y="365.93576968130367" width="11.046875" height="99.06423031869632" rx="2" fill="#4D79A5" stroke="none" stroke-width="1"/><rect x="237.421875" y="354.50944734488036" width="11.046875" height="110.49055265511964" rx="2" fill="#4D79A5" stroke="none" stroke-width="1"/><rect x="250.46875" y="344.7137143541329" width="11.046875" height="120.28628564586711" rx="2" fill="#4D79A5" stroke="none" stroke-width="1"/><rect x="263.515625" y="337.44769245962163" width="11.046875" height="127.55230754037837" rx="2" fill="#4D79A5" stroke="none" stroke-width="1"/><rect x="276.5625" y="333.42300949866944" width="11.046875" height="131.57699050133056" rx="2" fill="#4D79A5" stroke="none" stroke-width="1"/><rect x="289.609375" y="333.0489909074962" width="11.046875" height="131.95100909250377" rx="2" fill="#4D79A5" stroke="none" stroke-width="1"/><rect x="302.65625" y="336.36399232839335" width="11.046875" height="128.63600767160665" rx="2" fill="#4D79A5" stroke="none" stroke-width="1"/><rect x="315.703125" y="343.02878722227183" width="11.046875" height="121.9712127777282" rx="2" fill="#4D79A5" stroke="none" stroke-width="1"/><rect x="328.75" y="352.38353489393637" width="11.046875" height="112.6164651060636" rx="2" fill="#4D79A5" stroke="none" stroke-width="1"/><rect x="341.796875" y="363.5550034452702" width="11.046875" height="101.44499655472983" rx="2" fill="#4D79A5" stroke="none" stroke-width="1"/><rect x="354.84375" y="375.58981179616643" width="11.046875" height="89.41018820383358" rx="2" fill="#4D79A5" stroke="none" stroke-width="1"/><rect x="367.890625" y="387.5854765521911" width="11.046875" height="77.41452344780892" rx="2" fill="#4D79A5" stroke="none" stroke-width="1"/><rect x="380.9375" y="398.7945961647607" width="11.046875" height="66.20540383523928" rx="2" fill="#4D79A5" stroke="none" stroke-width="1"/><rect x="393.984375" y="408.686753963188" width="11.046875" height="56.31324603681203" rx="2" fill="#4D79A5" stroke="none" stroke-width="1"/><rect x="407.03125" y="416.96431960628945" width="11.046875" height="48.03568039371058" rx="2" fill="#4D79A5" stroke="none" stroke-width="1"/><rect x="420.078125" y="423.53872705324505" width="11.046875" height="41.461272946754946" rx="2" fill="#4D79A5" stroke="none" stroke-width="1"/><rect x="433.125" y="428.4804661689448" width="11.046875" height="36.519533831055185" rx="2" fill="#4D79A5" stroke="none" stroke-width="1"/><rect x="446.171875" y="431.95804027227564" width="11.046875" height="33.04195972772436" rx="2" fill="#4D79A5" stroke="none" stroke-width="1"/><rect x="459.21875" y="434.17917062603607" width="11.046875" height="30.820829373963953" rx="2" fill="#4D79A5" stroke="none" stroke-width="1"/><rect x="472.265625" y="435.34319565438955" width="11.046875" height="29.65680434561047" rx="2" fill="#4D79A5" stroke="none" stroke-width="1"/><rect x="485.3125" y="435.60874052753763" width="11.046875" height="29.391259472462394" rx="2" fill="#4D79A5" stroke="none" stroke-width="1"/><rect x="498.359375" y="435.0767240450507" width="11.046875" height="29.92327595494928" rx="2" fill="#4D79A5" stroke="none" stroke-width="1"/><rect x="511.40625" y="433.78631294872923" width="11.046875" height="31.213687051270774" rx="2" fill="#4D79A5" stroke="none" stroke-width="1"/><rect x="524.453125" y="431.72053552257836" width="11.046875" height="33.27946447742162" rx="2" fill="#167D72" stroke="none" stroke-width="1"/><rect x="537.5" y="428.81848863634934" width="11.046875" height="36.18151136365066" rx="2" fill="#167D72" stroke="none" stroke-width="1"/><rect x="550.546875" y="424.99182320108457" width="11.046875" height="40.0081767989154" rx="2" fill="#167D72" stroke="none" stroke-width="1"/><rect x="563.59375" y="420.1439558820298" width="11.046875" height="44.85604411797023" rx="2" fill="#167D72" stroke="none" stroke-width="1"/><rect x="576.640625" y="414.1909101320941" width="11.046875" height="50.80908986790594" rx="2" fill="#167D72" stroke="none" stroke-width="1"/><rect x="589.6875" y="407.0827351148635" width="11.046875" height="57.91726488513648" rx="2" fill="#167D72" stroke="none" stroke-width="1"/><rect x="602.734375" y="398.82415992382" width="11.046875" height="66.17584007618" rx="2" fill="#167D72" stroke="none" stroke-width="1"/><rect x="615.78125" y="389.49269300113167" width="11.046875" height="75.50730699886836" rx="2" fill="#167D72" stroke="none" stroke-width="1"/><rect x="628.828125" y="379.25199286270356" width="11.046875" height="85.74800713729643" rx="2" fill="#167D72" stroke="none" stroke-width="1"/><rect x="641.875" y="368.3582195546818" width="11.046875" height="96.6417804453182" rx="2" fill="#167D72" stroke="none" stroke-width="1"/><rect x="654.921875" y="357.15737032660104" width="11.046875" height="107.84262967339893" rx="2" fill="#167D72" stroke="none" stroke-width="1"/><rect x="667.96875" y="346.07236151912065" width="11.046875" height="118.92763848087935" rx="2" fill="#167D72" stroke="none" stroke-width="1"/><rect x="681.015625" y="335.57978979824924" width="11.046875" height="129.42021020175076" rx="2" fill="#167D72" stroke="none" stroke-width="1"/><rect x="694.0625" y="326.1777344774287" width="11.046875" height="138.82226552257129" rx="2" fill="#167D72" stroke="none" stroke-width="1"/><rect x="707.109375" y="318.3474131454378" width="11.046875" height="146.65258685456214" rx="2" fill="#167D72" stroke="none" stroke-width="1"/><rect x="720.15625" y="312.51270170626043" width="11.046875" height="152.48729829373957" rx="2" fill="#167D72" stroke="none" stroke-width="1"/><rect x="733.203125" y="309.0022219769022" width="11.046875" height="155.9977780230978" rx="2" fill="#167D72" stroke="none" stroke-width="1"/><rect x="746.25" y="308.0187061126207" width="11.046875" height="156.9812938873793" rx="2" fill="#167D72" stroke="none" stroke-width="1"/><rect x="759.296875" y="309.61961036500384" width="11.046875" height="155.38038963499616" rx="2" fill="#167D72" stroke="none" stroke-width="1"/><rect x="772.34375" y="313.71155732446874" width="11.046875" height="151.28844267553126" rx="2" fill="#167D72" stroke="none" stroke-width="1"/><rect x="785.390625" y="320.05935464514874" width="11.046875" height="144.94064535485126" rx="2" fill="#167D72" stroke="none" stroke-width="1"/><rect x="798.4375" y="328.3083787237598" width="11.046875" height="136.6916212762402" rx="2" fill="#167D72" stroke="none" stroke-width="1"/><rect x="811.484375" y="338.01736027379565" width="11.046875" height="126.98263972620434" rx="2" fill="#167D72" stroke="none" stroke-width="1"/><rect x="824.53125" y="348.6973582911561" width="11.046875" height="116.3026417088439" rx="2" fill="#167D72" stroke="none" stroke-width="1"/><rect x="837.578125" y="359.8521497683537" width="11.046875" height="105.1478502316463" rx="2" fill="#167D72" stroke="none" stroke-width="1"/><rect x="850.625" y="371.0154472740008" width="11.046875" height="93.9845527259992" rx="2" fill="#167D72" stroke="none" stroke-width="1"/><rect x="863.671875" y="381.7811975387306" width="11.046875" height="83.21880246126936" rx="2" fill="#167D72" stroke="none" stroke-width="1"/><rect x="876.71875" y="391.82451192158635" width="11.046875" height="73.17548807841366" rx="2" fill="#167D72" stroke="none" stroke-width="1"/><rect x="889.765625" y="400.91227277090366" width="11.046875" height="64.08772722909633" rx="2" fill="#167D72" stroke="none" stroke-width="1"/><rect x="902.8125" y="408.9038834875668" width="11.046875" height="56.0961165124332" rx="2" fill="#167D72" stroke="none" stroke-width="1"/><rect x="915.859375" y="415.74376837752754" width="11.046875" height="49.25623162247245" rx="2" fill="#167D72" stroke="none" stroke-width="1"/><rect x="928.90625" y="421.4479482319841" width="11.046875" height="43.5520517680159" rx="2" fill="#167D72" stroke="none" stroke-width="1"/><rect x="941.953125" y="426.0872813013867" width="11.046875" height="38.91271869861326" rx="2" fill="#167D72" stroke="none" stroke-width="1"/><line x1="529.15" y1="165" x2="529.15" y2="471" stroke="#ED7A3B" stroke-width="4" stroke-dasharray="10 8"/><text x="541.15" y="155" fill="#ED7A3B" font-size="18" font-weight="700" text-anchor="start" font-family="Microsoft YaHei, Noto Sans CJK SC, Arial, sans-serif">阈值 T</text><text x="120" y="505" fill="#183235" font-size="16" font-weight="400" text-anchor="start" font-family="Microsoft YaHei, Noto Sans CJK SC, Arial, sans-serif">暗</text><text x="955" y="505" fill="#183235" font-size="16" font-weight="500" text-anchor="end" font-family="Microsoft YaHei, Noto Sans CJK SC, Arial, sans-serif">亮度 →</text><text x="200" y="165" fill="#4D79A5" font-size="16" font-weight="700" text-anchor="start" font-family="Microsoft YaHei, Noto Sans CJK SC, Arial, sans-serif">暗边线</text><text x="740" y="165" fill="#167D72" font-size="16" font-weight="700" text-anchor="start" font-family="Microsoft YaHei, Noto Sans CJK SC, Arial, sans-serif">背景</text><text x="90" y="162" fill="#52696A" font-size="15" font-weight="400" text-anchor="start" font-family="Microsoft YaHei, Noto Sans CJK SC, Arial, sans-serif">频数</text><text x="550" y="550" fill="#52696A" font-size="17" font-weight="500" text-anchor="middle" font-family="Microsoft YaHei, Noto Sans CJK SC, Arial, sans-serif">理想双峰之间可选一个全局 T；阴影会把分布拉宽或重叠。</text>
</svg>